<svg width="196" height="196" viewBox="0 0 196 196" fill="none" xmlns="http://www.w3.org/2000/svg">
<g clip-path="url(#clip0_1020_4619)">
<g clip-path="url(#clip1_1020_4619)">
<path d="M118.004 121.718C134.57 121.718 148 108.288 148 91.722C148 75.1557 134.57 61.7261 118.004 61.7261C101.438 61.7261 88.0081 75.1557 88.0081 91.722C88.0081 108.288 101.438 121.718 118.004 121.718Z" fill="#FF8D4D"/>
<path d="M99.6607 133.709C98.8579 133 97.8951 132.497 96.8549 132.242C95.8148 131.987 94.7284 131.989 93.6889 132.246C92.6495 132.504 91.6881 133.01 90.8872 133.721C90.0863 134.432 89.4699 135.326 89.0909 136.328C88.7118 137.329 88.5814 138.408 88.7109 139.471C88.8404 140.534 89.226 141.55 89.8344 142.431C90.4428 143.312 91.256 144.032 92.2041 144.53C93.1523 145.028 94.2071 145.288 95.2779 145.289H95.7122C96.5781 145.237 97.4249 145.013 98.2036 144.63C98.9822 144.248 99.6771 143.715 100.248 143.061C101.405 141.744 101.993 140.022 101.883 138.272C101.773 136.522 100.974 134.887 99.6607 133.725V133.709ZM97.6503 140.753C97.3773 141.063 97.046 141.317 96.6752 141.499C96.3043 141.68 95.9013 141.788 95.489 141.814C95.0768 141.84 94.6635 141.784 94.2726 141.651C93.8818 141.517 93.5211 141.308 93.2112 141.035C92.9011 140.762 92.6479 140.43 92.4659 140.06C92.284 139.689 92.1769 139.286 92.1507 138.873C92.1246 138.461 92.1799 138.048 92.3136 137.657C92.4473 137.266 92.6566 136.906 92.9297 136.596C93.2004 136.282 93.5316 136.027 93.9032 135.845C94.2749 135.662 94.6796 135.557 95.093 135.534H95.294C95.8995 135.534 96.4922 135.709 97.0009 136.037C97.5095 136.366 97.9124 136.834 98.1613 137.386C98.4101 137.938 98.4942 138.55 98.4036 139.149C98.3129 139.748 98.0514 140.308 97.6503 140.761V140.753Z" fill="black"/>
<path d="M141.864 135.092L136.09 115.558C132.849 104.581 126.81 102.04 117.16 99.3136C116.565 98.8633 115.479 98.0269 114.248 97.07C113.211 96.2658 112.077 95.3731 111.032 94.5448C114.543 91.2125 117.15 87.0423 118.607 82.4258C120.133 82.0604 121.526 81.2748 122.628 80.158C124.038 78.8569 124.874 77.0491 124.952 75.1319V72.9043C124.952 71.8378 124.528 70.8151 123.774 70.0611C123.02 69.307 121.998 68.8834 120.931 68.8834H119.323V66.8246C119.934 66.4694 120.501 66.0429 121.012 65.5541L121.14 65.4173C123.44 62.6992 125.008 58.3808 125.459 53.5717C125.909 48.7627 125.081 44.388 123.199 41.7825C121.197 39.0241 118.052 38.2521 114.578 39.6675C110.268 41.4286 104.566 41.5653 99.0655 41.7101C95.897 41.7824 92.6321 41.8709 89.536 42.2489C89.1 42.3288 88.7112 42.5724 88.4489 42.9297C88.1867 43.287 88.071 43.731 88.1255 44.1709C88.1799 44.6107 88.4005 45.0131 88.7419 45.2957C89.0834 45.5782 89.5199 45.7196 89.9622 45.6908C92.8733 45.3289 96.0659 45.2485 99.154 45.1761C104.968 45.0313 110.983 44.8786 115.889 42.8842C118.527 41.8066 119.717 42.8842 120.384 43.8251C123.368 47.9344 122.355 58.5094 118.559 63.1254C118.149 63.4932 117.702 63.8167 117.224 64.0905C117.115 64.1151 117.007 64.1474 116.902 64.187C113.549 65.6264 108.499 64.2915 102.652 62.7394C94.4013 60.5521 84.3168 57.9143 74.8436 62.466C75.3261 52.1805 79.6686 48.9799 83.0462 47.476C83.265 47.3904 83.4642 47.2612 83.6317 47.0964C83.7991 46.9315 83.9314 46.7344 84.0204 46.517C84.1095 46.2996 84.1536 46.0663 84.1499 45.8314C84.1462 45.5964 84.0949 45.3646 83.999 45.1501C83.9032 44.9355 83.7649 44.7426 83.5923 44.5831C83.4198 44.4236 83.2167 44.3007 82.9953 44.222C82.7739 44.1432 82.5388 44.1102 82.3043 44.1249C82.0698 44.1396 81.8407 44.2017 81.6309 44.3076C74.4737 47.5243 71.1122 54.4322 71.3454 65.4576V68.9156H69.737C68.6706 68.9156 67.6479 69.3392 66.8938 70.0933C66.1397 70.8473 65.7161 71.87 65.7161 72.9365V75.164C65.7918 77.08 66.6248 78.8877 68.0322 80.1901C69.136 81.3046 70.5283 82.0898 72.0531 82.4579C73.5005 87.0512 76.0904 91.2018 79.5802 94.5207L76.4921 96.9332C75.1411 97.9786 73.959 98.9035 73.3317 99.3458C66.0941 101.396 58.6876 103.64 55.0607 114.529C54.9157 114.966 54.9503 115.443 55.1569 115.855C55.3635 116.266 55.7252 116.579 56.1624 116.724C56.3384 116.784 56.5233 116.814 56.7093 116.813C57.0733 116.813 57.4282 116.699 57.7241 116.487C58.0199 116.275 58.2416 115.975 58.3578 115.63C61.3333 106.688 67.0671 104.742 73.7579 102.828L83.0462 109.728L83.1588 109.8C83.4966 110.017 83.7217 110.194 83.9067 110.331C84.3533 110.724 84.9205 110.954 85.5151 110.982C85.8949 110.942 86.2628 110.825 86.5971 110.64C86.9313 110.455 87.2251 110.205 87.4612 109.905C87.7024 109.655 88.0482 109.31 88.5388 108.859L89.343 112.076L86.9867 119.949H72.9296V116.861C72.9296 116.4 72.7466 115.958 72.4208 115.633C72.0951 115.307 71.6533 115.124 71.1926 115.124C70.7319 115.124 70.2901 115.307 69.9643 115.633C69.6386 115.958 69.4555 116.4 69.4555 116.861V119.949H64.8878C64.4884 119.95 64.0935 120.033 63.7271 120.192C63.3608 120.351 63.0306 120.583 62.7567 120.874C62.4995 121.15 62.3019 121.475 62.176 121.831C62.0501 122.187 61.9987 122.564 62.0249 122.94L63.8986 149.639C62.7406 149.205 61.6469 148.835 60.6337 148.457C56.854 147.114 53.8625 146.045 52.4793 144.436C51.5786 143.375 50.7503 141.461 52.3426 136.097L56.1222 123.302C56.2414 122.865 56.1845 122.397 55.9638 122.001C55.743 121.605 55.3758 121.31 54.9409 121.181C54.5059 121.052 54.0376 121.098 53.6362 121.309C53.2348 121.521 52.9321 121.881 52.7929 122.313L49.0133 135.108C47.4049 140.544 47.6542 144.107 49.8174 146.672C51.8118 149.028 55.1894 150.226 59.4676 151.746C60.891 152.245 62.4833 152.816 64.156 153.467L64.2445 154.682C64.2813 155.418 64.5982 156.113 65.1302 156.625C65.6623 157.136 66.3695 157.425 67.1073 157.432H123.4C124.137 157.421 124.842 157.131 125.373 156.62C125.904 156.11 126.222 155.417 126.263 154.682L126.343 153.596C128.145 152.888 129.833 152.285 131.361 151.746C135.64 150.226 139.025 149.028 141.012 146.672C143.183 144.107 143.424 140.544 141.816 135.116L141.864 135.092ZM119.347 77.4962V72.3816H120.955C121.092 72.3857 121.222 72.4424 121.318 72.5397C121.413 72.6371 121.468 72.7676 121.47 72.9043V75.1319C121.382 76.1168 120.922 77.0311 120.183 77.6892C119.915 77.9563 119.618 78.1935 119.299 78.3968C119.355 78.0912 119.363 77.7937 119.363 77.4962H119.347ZM70.501 77.6892C69.7628 77.0311 69.3028 76.1168 69.2143 75.1319V72.9043C69.2164 72.7663 69.2721 72.6346 69.3697 72.537C69.4673 72.4394 69.599 72.3836 69.737 72.3816H71.3454V77.4962C71.3454 77.7937 71.3454 78.0912 71.3454 78.3968C71.0275 78.1913 70.7311 77.9542 70.4608 77.6892H70.501ZM112.125 99.7961L113.493 100.866L105.451 106.865L105.161 107.05C104.807 106.704 104.357 106.246 103.682 105.691L102.25 104.34H102.21L99.154 101.453C99.9719 101.247 100.777 100.995 101.567 100.697C103.998 99.7642 106.279 98.4799 108.338 96.885L112.125 99.7961ZM97.9799 110.363H92.5597L91.4821 106.125L95.2778 102.546L99.0655 106.125L97.9799 110.363ZM92.5034 113.837H98.0442L99.8697 119.941H90.694L92.5034 113.837ZM75.1813 80.4555C74.9543 79.4852 74.8357 78.4927 74.8275 77.4962V66.4226C83.5609 61.2597 93.2272 63.8251 101.784 66.0929C107.131 67.5082 111.876 68.7627 115.873 68.0792V77.4962C115.867 78.4923 115.751 79.4848 115.527 80.4555C113.919 87.4841 107.381 94.77 100.32 97.4077C98.7505 98.0844 97.0594 98.4334 95.3502 98.4334C93.641 98.4334 91.9499 98.0844 90.3804 97.4077C83.3197 94.778 76.7816 87.4921 75.1813 80.4636V80.4555ZM89.3751 103.335L86.9063 105.667C86.2469 106.23 85.7804 106.68 85.4266 107.026L85.1451 106.841L77.1033 100.842L78.7117 99.579L82.3064 96.7885C84.3664 98.407 86.6604 99.7031 89.1097 100.632C89.8791 100.92 90.6629 101.167 91.458 101.372L89.3751 103.335ZM123.022 151.795C122.91 152.09 122.888 152.411 122.958 152.719L122.869 153.918H67.7024L65.5553 123.359H125.016L123.022 151.795ZM138.398 144.388C137.015 145.996 134.023 147.082 130.236 148.409C129.118 148.803 127.92 149.213 126.641 149.712L128.523 122.892C128.551 122.516 128.5 122.138 128.374 121.782C128.248 121.426 128.05 121.1 127.791 120.825C127.518 120.534 127.188 120.302 126.821 120.143C126.455 119.984 126.059 119.901 125.66 119.901H121.438V116.845C121.408 116.406 121.212 115.994 120.891 115.694C120.569 115.393 120.145 115.226 119.705 115.226C119.265 115.226 118.841 115.393 118.519 115.694C118.197 115.994 118.002 116.406 117.972 116.845V119.941H103.489L101.132 112.068L101.936 108.851C102.427 109.302 102.741 109.655 103.014 109.897C103.248 110.198 103.54 110.45 103.873 110.636C104.206 110.823 104.573 110.94 104.952 110.982C105.548 110.951 106.115 110.719 106.561 110.323C106.745 110.186 106.971 110.009 107.308 109.792L107.421 109.72L116.709 102.82C125.298 105.281 129.978 107.259 132.729 116.571L138.503 136.105C140.111 141.469 139.267 143.343 138.366 144.444L138.398 144.388Z" fill="black"/>
<path d="M101.575 82.5786H89.3268C88.4602 82.5786 87.6289 82.9223 87.0153 83.5344C86.4017 84.1465 86.0559 84.9769 86.0538 85.8436C86.0274 87.0867 86.2896 88.319 86.8199 89.4437C87.3501 90.5683 88.1339 91.5547 89.1097 92.3253C90.9291 93.7098 93.1607 94.4433 95.4467 94.4081C100.111 94.4081 104.839 91.4648 104.839 85.8436C104.837 84.9769 104.492 84.1465 103.878 83.5344C103.264 82.9223 102.433 82.5786 101.566 82.5786H101.575ZM95.4467 90.9421C93.2754 90.9421 89.6405 89.9047 89.5198 86.0446H101.365C101.253 89.9047 97.6179 90.9421 95.4467 90.9421Z" fill="black"/>
<path d="M88.8362 76.4748C88.6091 76.4752 88.3842 76.4307 88.1744 76.3437C87.9646 76.2568 87.7741 76.1291 87.6139 75.9682C87.4084 75.7615 87.164 75.5975 86.8949 75.4856C86.6258 75.3737 86.3372 75.3161 86.0457 75.3161C85.7543 75.3161 85.4657 75.3737 85.1966 75.4856C84.9274 75.5975 84.6831 75.7615 84.4776 75.9682C84.1467 76.2643 83.715 76.4224 83.2711 76.4101C82.8273 76.3978 82.405 76.2159 82.0911 75.902C81.7771 75.588 81.5953 75.1658 81.5829 74.7219C81.5706 74.2781 81.7287 73.8463 82.0248 73.5154C82.5528 72.9873 83.1797 72.5684 83.8696 72.2825C84.5595 71.9967 85.2989 71.8496 86.0457 71.8496C86.7925 71.8496 87.532 71.9967 88.2219 72.2825C88.9118 72.5684 89.5387 72.9873 90.0666 73.5154C90.3077 73.7588 90.4714 74.068 90.5372 74.4042C90.603 74.7403 90.5679 75.0884 90.4364 75.4047C90.3049 75.7209 90.0829 75.9913 89.7981 76.1817C89.5134 76.3721 89.1788 76.4741 88.8362 76.4748Z" fill="black"/>
<path d="M107.324 76.4749C107.097 76.4753 106.872 76.4308 106.663 76.3438C106.453 76.2569 106.262 76.1292 106.102 75.9683C105.896 75.7614 105.651 75.5972 105.381 75.4852C105.111 75.3732 104.822 75.3155 104.53 75.3155C104.238 75.3155 103.949 75.3732 103.679 75.4852C103.409 75.5972 103.164 75.7614 102.958 75.9683C102.631 76.2935 102.189 76.4759 101.729 76.4751C101.268 76.4744 100.826 76.2906 100.501 75.9643C100.176 75.638 99.9934 75.1958 99.9941 74.7351C99.9949 74.2743 100.179 73.8327 100.505 73.5075C101.574 72.4467 103.02 71.8516 104.526 71.8516C106.032 71.8516 107.477 72.4467 108.547 73.5075C108.871 73.8331 109.054 74.2741 109.054 74.7339C109.054 75.1936 108.871 75.6347 108.547 75.9603C108.387 76.1244 108.195 76.2545 107.984 76.3429C107.773 76.4313 107.546 76.4762 107.316 76.4749H107.324Z" fill="black"/>
</g>
</g>
<defs>
<clipPath id="clip0_1020_4619">
<rect width="196" height="196" fill="white"/>
</clipPath>
<clipPath id="clip1_1020_4619">
<rect width="100" height="118.408" fill="white" transform="translate(48 39)"/>
</clipPath>
</defs>
</svg>
