<svg width="196" height="196" viewBox="0 0 196 196" fill="none" xmlns="http://www.w3.org/2000/svg">
<g clip-path="url(#clip0_1020_4608)">
<g clip-path="url(#clip1_1020_4608)">
<path d="M105.697 130.895C119.25 130.895 130.237 119.908 130.237 106.355C130.237 92.8024 119.25 81.8157 105.697 81.8157C92.1447 81.8157 81.158 92.8024 81.158 106.355C81.158 119.908 92.1447 130.895 105.697 130.895Z" fill="#C4D7FB"/>
<path d="M83.0593 120.658C79.4406 120.655 75.9141 121.8 72.9871 123.928C70.0601 126.056 67.8833 129.057 66.7699 132.5C66.0001 132.428 65.2567 132.395 64.6975 132.395C56.737 132.395 49.5659 138.105 48.0396 145.678C47.9887 145.961 48.0005 146.252 48.0741 146.531C48.1477 146.809 48.2813 147.068 48.4657 147.29C48.65 147.511 48.8805 147.689 49.141 147.812C49.4016 147.935 49.6858 147.999 49.9738 148H89.2304C89.5103 148.04 89.7955 148.019 90.0667 147.939C90.3378 147.859 90.5887 147.722 90.8022 147.537C91.0158 147.352 91.187 147.123 91.3044 146.866C91.4217 146.608 91.4825 146.329 91.4825 146.046C91.4825 145.763 91.4217 145.484 91.3044 145.227C91.187 144.97 91.0158 144.741 90.8022 144.555C90.5887 144.37 90.3378 144.233 90.0667 144.153C89.7955 144.073 89.5103 144.052 89.2304 144.092H52.6054C53.6607 141.769 55.3615 139.797 57.5053 138.413C59.6491 137.028 62.1455 136.289 64.6975 136.283C65.7484 136.281 66.7972 136.38 67.8291 136.579C68.0859 136.633 68.3507 136.634 68.6082 136.584C68.8657 136.534 69.1106 136.433 69.3287 136.288C69.5468 136.142 69.7336 135.954 69.8783 135.735C70.0229 135.516 70.1225 135.271 70.1712 135.013C71.2304 129.092 76.7501 124.566 83.0593 124.566C85.8904 124.568 88.6503 125.453 90.9541 127.099C91.2459 127.309 91.5896 127.435 91.9478 127.463C92.3061 127.492 92.6654 127.423 92.987 127.262C93.3086 127.102 93.5803 126.856 93.7728 126.553C93.9652 126.249 94.0711 125.899 94.0791 125.54V111.671H101.895V125.54C101.903 125.899 102.009 126.249 102.201 126.553C102.394 126.856 102.665 127.102 102.987 127.262C103.309 127.423 103.668 127.492 104.026 127.463C104.384 127.435 104.728 127.309 105.02 127.099C107.324 125.453 110.084 124.568 112.915 124.566C119.197 124.566 124.757 129.053 125.803 135.013C125.845 135.278 125.941 135.531 126.085 135.757C126.229 135.983 126.417 136.178 126.638 136.329C126.858 136.474 127.104 136.574 127.363 136.623C127.622 136.671 127.888 136.668 128.145 136.612C129.177 136.413 130.225 136.314 131.276 136.316C133.829 136.314 136.329 137.046 138.477 138.425C140.626 139.804 142.333 141.771 143.395 144.092H106.79C106.51 144.052 106.225 144.073 105.953 144.153C105.682 144.233 105.431 144.37 105.218 144.555C105.004 144.741 104.833 144.97 104.716 145.227C104.598 145.484 104.537 145.763 104.537 146.046C104.537 146.329 104.598 146.608 104.716 146.866C104.833 147.123 105.004 147.352 105.218 147.537C105.431 147.722 105.682 147.859 105.953 147.939C106.225 148.019 106.51 148.04 106.79 148H146.026C146.315 147.997 146.599 147.93 146.859 147.805C147.118 147.68 147.348 147.499 147.53 147.276C147.713 147.052 147.844 146.792 147.915 146.512C147.986 146.233 147.995 145.941 147.941 145.658C146.401 138.086 139.244 132.375 131.283 132.375C130.724 132.375 129.967 132.375 129.211 132.48C128.097 129.037 125.92 126.036 122.993 123.908C120.066 121.78 116.54 120.635 112.921 120.638C110.466 120.645 108.039 121.155 105.79 122.138V111.671H109.184L120.592 117.329C120.89 117.47 121.219 117.534 121.548 117.515C121.877 117.496 122.196 117.395 122.476 117.22C122.756 117.046 122.988 116.805 123.151 116.518C123.314 116.232 123.402 115.909 123.408 115.579V104.809C123.394 101.54 122.561 98.3259 120.985 95.461C119.41 92.596 117.142 90.1713 114.388 88.408C114.98 74.1251 109.744 59.0133 99.3028 48.5725C98.9338 48.2108 98.4378 48.0083 97.9212 48.0083C97.4046 48.0083 96.9085 48.2108 96.5396 48.5725C86.0988 59.0133 80.8685 74.1185 81.4541 88.408C78.6687 90.1524 76.3657 92.5681 74.7565 95.4337C73.1473 98.2993 72.2832 101.523 72.2435 104.809V115.579C72.2488 115.908 72.3363 116.231 72.4983 116.518C72.6602 116.805 72.8913 117.047 73.1706 117.221C73.4498 117.396 73.7684 117.498 74.0971 117.518C74.4259 117.538 74.7544 117.475 75.0527 117.336L86.658 111.671H90.2106V122.158C87.9635 121.175 85.5383 120.664 83.0856 120.658H83.0593ZM87.8751 107.763L86.7633 99.9738H109.046L107.928 107.783L87.8751 107.763ZM119.487 104.809V112.428L111.757 108.599C111.757 108.599 113.954 93.1843 113.98 92.9804C115.698 94.4373 117.08 96.2491 118.031 98.2912C118.981 100.333 119.478 102.557 119.487 104.809ZM97.9014 52.783C99.8511 54.9234 101.591 57.2454 103.099 59.7172H92.737C94.2443 57.247 95.9823 54.9252 97.9278 52.783H97.9014ZM90.5527 63.6251H105.237C109.151 71.6119 110.928 80.477 110.395 89.3554C110.316 90.5922 110.191 91.8291 110.02 93.0396L109.586 96.0462H86.2041L85.7699 93.0396C85.5988 91.8291 85.4738 90.5922 85.3949 89.3554C84.8644 80.4772 86.6413 71.6129 90.5527 63.6251ZM76.1251 104.809C76.1516 102.539 76.6754 100.302 77.6598 98.2561C78.6441 96.2101 80.065 94.4047 81.8225 92.9672C81.8225 93.1777 84.0462 108.592 84.0462 108.592L76.1514 112.461L76.1251 104.809Z" fill="black"/>
</g>
</g>
<defs>
<clipPath id="clip0_1020_4608">
<rect width="196" height="196" fill="white"/>
</clipPath>
<clipPath id="clip1_1020_4608">
<rect width="100" height="100" fill="white" transform="translate(48 48)"/>
</clipPath>
</defs>
</svg>
