<svg width="196" height="196" viewBox="0 0 196 196" fill="none" xmlns="http://www.w3.org/2000/svg">
<g clip-path="url(#clip0_1020_4597)">
<path d="M113.153 110.962C125.897 110.962 136.227 100.631 136.227 87.8873C136.227 75.1436 125.897 64.8127 113.153 64.8127C100.409 64.8127 90.0784 75.1436 90.0784 87.8873C90.0784 100.631 100.409 110.962 113.153 110.962Z" fill="#FF8D4D"/>
<path d="M97.9969 57.8779C98.5154 57.8779 99.0126 57.672 99.3792 57.3054C99.7458 56.9388 99.9518 56.4415 99.9518 55.9231V50.0647C99.9667 49.7992 99.9273 49.5334 99.836 49.2836C99.7447 49.0338 99.6033 48.8053 99.4206 48.612C99.2379 48.4187 99.0177 48.2647 98.7734 48.1595C98.5292 48.0543 98.266 48 98 48C97.734 48 97.4709 48.0543 97.2266 48.1595C96.9823 48.2647 96.7621 48.4187 96.5794 48.612C96.3967 48.8053 96.2554 49.0338 96.164 49.2836C96.0727 49.5334 96.0333 49.7992 96.0483 50.0647V55.9231C96.0483 56.4405 96.2534 56.9367 96.6186 57.3032C96.9839 57.6696 97.4795 57.8763 97.9969 57.8779Z" fill="black"/>
<path d="M139.011 100.074H146.045C146.564 100.074 147.061 99.868 147.427 99.5014C147.794 99.1348 148 98.6376 148 98.1192C148 97.6007 147.794 97.1035 147.427 96.7369C147.061 96.3703 146.564 96.1643 146.045 96.1643H139.011C138.493 96.1643 137.996 96.3703 137.629 96.7369C137.263 97.1035 137.057 97.6007 137.057 98.1192C137.057 98.6376 137.263 99.1348 137.629 99.5014C137.996 99.868 138.493 100.074 139.011 100.074Z" fill="black"/>
<path d="M49.9548 100.074H56.9886C57.507 100.074 58.0042 99.868 58.3708 99.5014C58.7374 99.1348 58.9434 98.6376 58.9434 98.1192C58.9434 97.6007 58.7374 97.1035 58.3708 96.7369C58.0042 96.3703 57.507 96.1643 56.9886 96.1643H49.9548C49.4364 96.1643 48.9392 96.3703 48.5726 96.7369C48.206 97.1035 48 97.6007 48 98.1192C48 98.6376 48.206 99.1348 48.5726 99.5014C48.9392 99.868 49.4364 100.074 49.9548 100.074Z" fill="black"/>
<path d="M128.377 69.3163L132.522 65.1716C132.864 64.8008 133.049 64.3122 133.039 63.808C133.029 63.3038 132.825 62.823 132.468 62.466C132.112 62.109 131.632 61.9034 131.128 61.8923C130.624 61.8812 130.135 62.0654 129.763 62.4063L125.618 66.5511C125.276 66.9219 125.091 67.4105 125.101 67.9147C125.111 68.4189 125.316 68.8997 125.672 69.2567C126.028 69.6137 126.508 69.8192 127.013 69.8303C127.517 69.8414 128.006 69.6573 128.377 69.3163Z" fill="black"/>
<path d="M67.6164 69.3162C67.9831 69.6829 68.4804 69.8889 68.999 69.8889C69.5176 69.8889 70.0149 69.6829 70.3816 69.3162C70.7483 68.9495 70.9543 68.4522 70.9543 67.9336C70.9543 67.415 70.7483 66.9177 70.3816 66.551L66.2369 62.4062C66.0553 62.2246 65.8397 62.0806 65.6025 61.9823C65.3653 61.8841 65.111 61.8335 64.8542 61.8335C64.5975 61.8335 64.3432 61.8841 64.106 61.9823C63.8687 62.0806 63.6532 62.2246 63.4716 62.4062C63.2901 62.5878 63.146 62.8033 63.0478 63.0406C62.9495 63.2778 62.8989 63.532 62.8989 63.7888C62.8989 64.0456 62.9495 64.2999 63.0478 64.5371C63.146 64.7743 63.2901 64.9899 63.4716 65.1715L67.6164 69.3162Z" fill="black"/>
<path d="M97.9968 148.104C99.0765 148.104 99.9517 147.228 99.9517 146.149C99.9517 145.069 99.0765 144.194 97.9968 144.194C96.9172 144.194 96.042 145.069 96.042 146.149C96.042 147.228 96.9172 148.104 97.9968 148.104Z" fill="black"/>
<path d="M69.6704 95.1746V109.823C69.6704 120.532 78.294 126.675 81.4242 128.531V146.136C81.4234 146.393 81.4734 146.648 81.5713 146.886C81.6693 147.123 81.8132 147.339 81.9949 147.521C82.1766 147.702 82.3924 147.846 82.63 147.944C82.8675 148.042 83.1221 148.092 83.379 148.091H89.2374C89.7558 148.091 90.253 147.885 90.6196 147.519C90.9862 147.152 91.1922 146.655 91.1922 146.136C91.1922 145.618 90.9862 145.121 90.6196 144.754C90.253 144.388 89.7558 144.182 89.2374 144.182H85.3277V127.398C85.3273 127.037 85.2265 126.682 85.0365 126.374C84.8464 126.066 84.5746 125.817 84.2513 125.654C84.1461 125.604 73.611 120.161 73.611 109.823V95.1746C73.6127 94.1398 74.0244 93.1479 74.7561 92.4162C75.4878 91.6845 76.4797 91.2727 77.5145 91.2711H98.8012C98.3498 93.4752 97.1519 95.456 95.4096 96.8794C93.6672 98.3028 91.4872 99.0816 89.2374 99.0842H83.379C83.1135 99.0693 82.8477 99.1086 82.5979 99.2C82.3481 99.2913 82.1195 99.4327 81.9263 99.6154C81.733 99.7981 81.579 100.018 81.4738 100.263C81.3685 100.507 81.3143 100.77 81.3143 101.036C81.3143 101.302 81.3685 101.565 81.4738 101.809C81.579 102.054 81.733 102.274 81.9263 102.457C82.1195 102.639 82.3481 102.781 82.5979 102.872C82.8477 102.963 83.1135 103.003 83.379 102.988C87.5202 102.999 91.4878 104.653 94.4115 107.586C97.3351 110.519 98.9761 114.491 98.9744 118.633C98.9744 119.151 99.1804 119.648 99.547 120.015C99.9136 120.381 100.411 120.587 100.929 120.587C101.448 120.587 101.945 120.381 102.312 120.015C102.678 119.648 102.884 119.151 102.884 118.633C102.886 116.044 103.915 113.561 105.745 111.73C107.575 109.898 110.057 108.868 112.646 108.865C112.912 108.88 113.177 108.84 113.427 108.749C113.677 108.658 113.905 108.516 114.099 108.333C114.292 108.151 114.446 107.931 114.551 107.686C114.656 107.442 114.711 107.179 114.711 106.913C114.711 106.647 114.656 106.384 114.551 106.139C114.446 105.895 114.292 105.675 114.099 105.492C113.905 105.31 113.677 105.168 113.427 105.077C113.177 104.986 112.912 104.946 112.646 104.961C110.409 104.962 108.207 105.512 106.232 106.563C104.257 107.613 102.57 109.132 101.319 110.986C99.7812 107.377 97.1951 104.313 93.8956 102.19C97.2841 100.934 100.043 98.3965 101.579 95.1251C103.009 96.4107 104.865 97.1204 106.788 97.117H108.272C109.151 97.1421 110.029 97.08 110.895 96.9314C111.17 98.1213 111.72 99.2301 112.502 100.169C113.283 101.107 114.274 101.849 115.394 102.336C116.514 102.822 117.733 103.038 118.952 102.968C120.171 102.897 121.357 102.542 122.414 101.93V109.817C122.414 120.154 111.897 125.598 111.774 125.648C111.45 125.81 111.177 126.059 110.986 126.367C110.795 126.675 110.693 127.03 110.691 127.392V144.188H106.788C106.269 144.188 105.772 144.394 105.405 144.76C105.039 145.127 104.833 145.624 104.833 146.143C104.833 146.661 105.039 147.158 105.405 147.525C105.772 147.892 106.269 148.098 106.788 148.098H112.646C113.164 148.098 113.662 147.892 114.028 147.525C114.395 147.158 114.601 146.661 114.601 146.143V128.531C117.694 126.675 126.317 120.519 126.317 109.811V85.2271C126.316 83.156 125.492 81.1703 124.027 79.7064C122.562 78.2424 120.575 77.4201 118.504 77.4201C117.114 77.4167 115.748 77.7886 114.551 78.4965C114.337 76.5863 113.427 74.8218 111.995 73.5394C110.564 72.257 108.71 71.5465 106.788 71.5433C105.397 71.5417 104.031 71.9157 102.835 72.6258C102.619 70.7178 101.708 68.9561 100.276 67.6769C98.844 66.3978 96.9911 65.6907 95.071 65.6907C93.1508 65.6907 91.2979 66.3978 89.8659 67.6769C88.4339 68.9561 87.523 70.7178 87.3073 72.6258C86.1219 71.9291 84.7735 71.558 83.3985 71.5502C82.0236 71.5424 80.671 71.8981 79.4779 72.5814C78.2847 73.2646 77.2933 74.2512 76.6041 75.4409C75.915 76.6307 75.5525 77.9815 75.5535 79.3564V87.615C73.8735 88.0444 72.3839 89.02 71.3189 90.3885C70.2539 91.7569 69.674 93.4405 69.6704 95.1746ZM118.492 81.3113C119.528 81.3112 120.521 81.7223 121.254 82.4542C121.987 83.1861 122.4 84.1789 122.402 85.2147V95.1746C122.423 95.7007 122.337 96.2256 122.15 96.7178C121.963 97.21 121.679 97.6594 121.314 98.0391C120.949 98.4187 120.511 98.7207 120.027 98.9271C119.543 99.1334 119.022 99.2397 118.495 99.2397C117.968 99.2397 117.447 99.1334 116.963 98.9271C116.479 98.7207 116.041 98.4187 115.676 98.0391C115.311 97.6594 115.027 97.21 114.84 96.7178C114.653 96.2256 114.567 95.7007 114.588 95.1746V85.2271C114.588 84.7127 114.688 84.2031 114.885 83.7276C115.081 83.2522 115.37 82.8201 115.734 82.4564C116.097 82.0926 116.529 81.8042 117.005 81.6077C117.48 81.4112 117.99 81.3104 118.504 81.3113H118.492ZM106.788 75.4529C107.822 75.4546 108.814 75.8664 109.546 76.598C110.278 77.3297 110.689 78.3217 110.691 79.3564V92.2485C110.715 92.4912 110.676 92.736 110.58 92.9599C110.289 93.2506 108.594 93.2383 107.579 93.2259H106.788C105.752 93.2242 104.759 92.8116 104.027 92.0786C103.295 91.3456 102.884 90.352 102.884 89.3162V79.3564C102.886 78.3217 103.298 77.3297 104.029 76.598C104.761 75.8664 105.753 75.4546 106.788 75.4529ZM91.1613 73.4733C91.2014 72.4642 91.6306 71.5097 92.3588 70.8098C93.0871 70.11 94.0579 69.7191 95.0679 69.7191C96.0778 69.7191 97.0487 70.11 97.7769 70.8098C98.5051 71.5097 98.9343 72.4642 98.9744 73.4733V87.3428H91.1613V73.4733ZM83.3543 75.4282C84.3891 75.4298 85.381 75.8416 86.1127 76.5733C86.8444 77.305 87.2561 78.2969 87.2578 79.3317V87.3737H79.4446V79.3317C79.4528 78.3001 79.8683 77.3136 80.6006 76.5871C81.3329 75.8606 82.3227 75.4529 83.3543 75.4529V75.4282Z" fill="black"/>
</g>
<defs>
<clipPath id="clip0_1020_4597">
<rect width="196" height="196" fill="white"/>
</clipPath>
</defs>
</svg>
