<svg width="196" height="196" viewBox="0 0 196 196" fill="none" xmlns="http://www.w3.org/2000/svg">
<g clip-path="url(#clip0_1019_4596)">
<g clip-path="url(#clip1_1019_4596)">
<path d="M74.348 131.727C87.4616 131.727 98.0923 121.048 98.0923 107.874C98.0923 94.7008 87.4616 84.0215 74.348 84.0215C61.2343 84.0215 50.6036 94.7008 50.6036 107.874C50.6036 121.048 61.2343 131.727 74.348 131.727Z" fill="#C4D7FB"/>
<path d="M49.967 76.8274C50.4853 76.8274 50.9824 76.6205 51.3489 76.2524C51.7154 75.8842 51.9213 75.3848 51.9213 74.8641V65.0544H62.8577C63.376 65.0544 63.8731 64.8475 64.2396 64.4794C64.6061 64.1112 64.812 63.6118 64.812 63.0912C64.8103 62.571 64.6039 62.0726 64.2377 61.7048C63.8716 61.337 63.3755 61.1296 62.8577 61.1279H49.967C49.4487 61.1279 48.9516 61.3348 48.5851 61.7029C48.2186 62.0711 48.0127 62.5705 48.0127 63.0912V74.8641C48.0119 75.1222 48.0618 75.3778 48.1598 75.6164C48.2577 75.855 48.4016 76.0718 48.5832 76.2542C48.7649 76.4367 48.9807 76.5813 49.2181 76.6796C49.4556 76.778 49.7101 76.8282 49.967 76.8274Z" fill="black"/>
<path d="M146.046 61.1279H133.155C132.637 61.1296 132.141 61.337 131.775 61.7048C131.409 62.0726 131.202 62.571 131.201 63.0912C131.201 63.6118 131.407 64.1112 131.773 64.4794C132.14 64.8475 132.637 65.0544 133.155 65.0544H144.091V74.8641C144.091 75.1219 144.142 75.3773 144.24 75.6154C144.338 75.8536 144.482 76.0701 144.664 76.2524C144.845 76.4347 145.061 76.5792 145.298 76.6779C145.535 76.7766 145.789 76.8274 146.046 76.8274C146.303 76.8282 146.557 76.778 146.795 76.6796C147.032 76.5813 147.248 76.4367 147.429 76.2542C147.611 76.0718 147.755 75.855 147.853 75.6164C147.951 75.3778 148.001 75.1222 148 74.8641V63.0912C148 62.5705 147.794 62.0711 147.428 61.7029C147.061 61.3348 146.564 61.1279 146.046 61.1279Z" fill="black"/>
<path d="M49.967 135.692H62.8577C63.3755 135.691 63.8716 135.483 64.2377 135.115C64.6039 134.748 64.8103 134.249 64.812 133.729C64.812 133.208 64.6061 132.709 64.2396 132.341C63.8731 131.973 63.376 131.766 62.8577 131.766H51.9213V121.956C51.9213 121.698 51.8707 121.443 51.7725 121.205C51.6743 120.967 51.5304 120.75 51.3489 120.568C51.1674 120.386 50.952 120.241 50.7149 120.142C50.4778 120.044 50.2236 119.993 49.967 119.993C49.7101 119.992 49.4556 120.042 49.2181 120.141C48.9807 120.239 48.7649 120.384 48.5832 120.566C48.4016 120.749 48.2577 120.965 48.1598 121.204C48.0618 121.442 48.0119 121.698 48.0127 121.956V133.729C48.0127 134.25 48.2186 134.749 48.5851 135.117C48.9516 135.486 49.4487 135.692 49.967 135.692Z" fill="black"/>
<path d="M146.046 119.993C145.789 119.993 145.535 120.044 145.298 120.142C145.061 120.241 144.845 120.386 144.664 120.568C144.482 120.75 144.338 120.967 144.24 121.205C144.142 121.443 144.091 121.698 144.091 121.956V131.766H133.155C132.637 131.766 132.14 131.973 131.773 132.341C131.407 132.709 131.201 133.208 131.201 133.729C131.202 134.249 131.409 134.748 131.775 135.115C132.141 135.483 132.637 135.691 133.155 135.692H146.046C146.302 135.692 146.556 135.642 146.794 135.543C147.031 135.444 147.246 135.3 147.428 135.117C147.609 134.935 147.753 134.719 147.851 134.48C147.949 134.242 148 133.987 148 133.729V121.956C148.001 121.698 147.951 121.442 147.853 121.204C147.755 120.965 147.611 120.749 147.429 120.566C147.248 120.384 147.032 120.239 146.795 120.141C146.557 120.042 146.303 119.992 146.046 119.993Z" fill="black"/>
<path d="M76.5123 98.41C76.5123 98.9296 76.3073 99.428 75.9422 99.796C75.577 100.164 75.0816 100.372 74.5644 100.373C74.0461 100.373 73.549 100.166 73.1825 99.7982C72.816 99.4301 72.6101 98.9307 72.6101 98.41C72.6101 97.8893 72.816 97.39 73.1825 97.0218C73.549 96.6536 74.0461 96.4468 74.5644 96.4468C75.0816 96.4485 75.577 96.6561 75.9422 97.024C76.3073 97.392 76.5123 97.8904 76.5123 98.41Z" fill="black"/>
<path d="M147.465 97.0607C139.635 88.7473 120.252 73.7449 99.9511 72.8496C98.6498 72.7754 97.3446 72.8096 96.0489 72.9519C77.1171 73.7833 57.7906 87.2189 48.5347 97.0607C48.1914 97.4252 48 97.9081 48 98.41C48 98.9119 48.1914 99.3947 48.5347 99.7593C56.3646 108.073 75.7484 122.979 96.0489 123.868H99.9511C118.883 123.037 138.203 109.601 147.465 99.7593C147.809 99.3947 148 98.9119 148 98.41C148 97.9081 147.809 97.4252 147.465 97.0607ZM99.9511 119.903H96.0489C92.7183 119.611 89.5026 118.537 86.6609 116.767C83.8193 114.998 81.4311 112.583 79.6889 109.716C78.9545 108.544 78.3342 107.305 77.8364 106.013C77.5906 105.634 77.2218 105.352 76.7926 105.215C76.3634 105.077 75.9001 105.093 75.4811 105.259C74.9984 105.452 74.6119 105.831 74.4065 106.31C74.2012 106.79 74.1939 107.332 74.3862 107.817C75.642 110.974 77.5118 113.848 79.8862 116.271C70.0383 112.396 60.2541 105.643 52.7425 98.41C56.3265 94.9631 66.7027 85.7481 79.8862 80.5427C77.514 82.9696 75.6484 85.8482 74.3989 89.0095C74.2066 89.4946 74.214 90.0365 74.4193 90.5161C74.6246 90.9958 75.0111 91.3739 75.4938 91.5674C75.8442 91.707 76.2274 91.7413 76.5969 91.6664C76.9664 91.5915 77.3063 91.4105 77.5754 91.1454C79.0441 86.8738 81.8012 83.1681 85.4634 80.5436C89.1257 77.919 93.511 76.506 98.0096 76.5011C103.737 76.5112 109.226 78.8012 113.276 82.8693C117.325 86.9375 119.605 92.4521 119.615 98.2053C119.62 102.668 118.248 107.022 115.687 110.669L115.585 110.822L115.223 111.315C113.419 113.742 111.127 115.761 108.496 117.241C105.865 118.721 102.954 119.628 99.9511 119.903ZM116.088 116.29C120.777 111.522 123.401 105.087 123.39 98.3844C123.402 91.6833 120.78 85.2484 116.095 80.4787C126.032 84.386 135.829 91.1838 143.27 98.3844C139.68 101.857 129.291 111.085 116.088 116.29Z" fill="black"/>
</g>
</g>
<defs>
<clipPath id="clip0_1019_4596">
<rect width="196" height="196" fill="white"/>
</clipPath>
<clipPath id="clip1_1019_4596">
<rect width="100" height="74.8201" fill="white" transform="translate(48 61)"/>
</clipPath>
</defs>
</svg>
