<svg width="196" height="196" viewBox="0 0 196 196" fill="none" xmlns="http://www.w3.org/2000/svg">
<g clip-path="url(#clip0_1020_4630)">
<path d="M86.9628 133.549C101.675 133.549 113.602 121.625 113.602 106.916C113.602 92.2072 101.675 80.2832 86.9628 80.2832C72.2506 80.2832 60.324 92.2072 60.324 106.916C60.324 121.625 72.2506 133.549 86.9628 133.549Z" fill="#C4D7FB"/>
<path fill-rule="evenodd" clip-rule="evenodd" d="M106.727 72.3174C107.459 72.9776 107.518 74.1064 106.857 74.8385L89.3431 94.2545L83.3275 114.31L102.661 106.265L120.175 86.8562C120.835 86.1242 121.964 86.0662 122.696 86.7266C123.428 87.387 123.486 88.5157 122.826 89.2477L105.043 108.955C104.866 109.151 104.647 109.305 104.403 109.407L81.2211 119.053C80.5842 119.318 79.8515 119.193 79.3392 118.731C78.8269 118.269 78.6267 117.553 78.8248 116.893L86.038 92.8444C86.114 92.5912 86.2452 92.358 86.4223 92.1617L104.205 72.4475C104.866 71.7154 105.995 71.6571 106.727 72.3174Z" fill="black"/>
<path fill-rule="evenodd" clip-rule="evenodd" d="M83.9167 103.207C84.5776 102.475 85.7067 102.417 86.4385 103.078L94.1801 110.069C94.9119 110.729 94.9694 111.858 94.3085 112.59C93.6476 113.321 92.5186 113.379 91.7868 112.718L84.0451 105.728C83.3133 105.067 83.2558 103.938 83.9167 103.207Z" fill="black"/>
<path fill-rule="evenodd" clip-rule="evenodd" d="M114.762 79.6004C115.494 80.2606 115.553 81.3893 114.892 82.1215L98.7304 100.043C98.0701 100.776 96.9412 100.834 96.2088 100.174C95.4764 99.5138 95.418 98.3851 96.0783 97.6529L112.24 79.7309C112.9 78.9987 114.029 78.9403 114.762 79.6004Z" fill="black"/>
<path fill-rule="evenodd" clip-rule="evenodd" d="M88.0227 90.383C88.6834 89.6512 89.8124 89.5933 90.5444 90.2538L106.513 104.663C107.245 105.323 107.303 106.452 106.643 107.184C105.982 107.916 104.853 107.974 104.121 107.313L88.152 92.9042C87.4199 92.2437 87.3621 91.1149 88.0227 90.383Z" fill="black"/>
<path fill-rule="evenodd" clip-rule="evenodd" d="M100.251 51.6274C100.251 51.6274 100.25 51.6274 100.249 51.6275L91.1026 52.0982C91.1017 52.0983 91.1009 52.0983 91.1 52.0984C89.8482 52.1674 88.6745 52.7285 87.8349 53.6594C86.9947 54.5907 86.5572 55.8167 86.618 57.0695C86.618 57.0695 86.618 57.0694 86.618 57.0695L86.9894 64.7024C87.0268 65.4724 86.5656 66.1795 85.8457 66.4557C84.2488 67.0683 82.7027 67.8061 81.2219 68.6621C80.5532 69.0487 79.7118 68.9615 79.1366 68.4461L73.4219 63.3255C72.4878 62.4869 71.2597 62.0522 70.0059 62.1164C68.7531 62.1805 67.5765 62.7376 66.7331 63.666C66.7325 63.6666 66.7319 63.6673 66.7313 63.6679L60.5965 70.4718C60.596 70.4724 60.5955 70.4729 60.595 70.4735C59.7589 71.4069 59.3256 72.6329 59.3897 73.8844C59.4538 75.1348 60.0092 76.3091 60.935 77.152C60.9364 77.1533 60.9377 77.1545 60.9391 77.1557L66.6435 82.2672C67.2211 82.7847 67.3984 83.6159 67.0823 84.324C66.3845 85.8872 65.809 87.5022 65.3611 89.1544C65.1591 89.8995 64.5009 90.4304 63.7297 90.4701L56.1098 90.8625C56.1086 90.8625 56.1075 90.8626 56.1063 90.8627C54.8548 90.9333 53.6818 91.495 52.8423 92.4256C52.0029 93.3562 51.5648 94.5803 51.6232 95.832C51.6232 95.8333 51.6233 95.8346 51.6234 95.8359L52.1011 104.982C52.1011 104.983 52.1012 104.984 52.1013 104.985C52.1718 106.236 52.7336 107.409 53.6646 108.249C54.5956 109.088 55.8205 109.526 57.0728 109.468C57.0737 109.468 57.0747 109.468 57.0756 109.468L64.7103 109.075C65.4845 109.035 66.1959 109.5 66.4711 110.224C67.0781 111.822 67.813 113.368 68.6687 114.848C68.8372 115.14 68.9142 115.459 68.9085 115.772C68.9099 116.198 68.7595 116.627 68.4526 116.969L63.332 122.681L63.3314 122.682C62.494 123.615 62.0603 124.842 62.1255 126.094C62.1906 127.346 62.7487 128.52 63.6778 129.362M63.679 129.363L70.4789 135.505C70.4798 135.506 70.4806 135.507 70.4815 135.507C71.4159 136.344 72.6433 136.777 73.896 136.712C75.1483 136.646 76.3239 136.089 77.1665 135.16C77.1675 135.159 77.1685 135.158 77.1694 135.157L82.2838 129.452C82.802 128.874 83.6346 128.697 84.3432 129.014C85.9025 129.713 87.5153 130.285 89.166 130.725C89.9145 130.925 90.4488 131.585 90.4886 132.358L90.881 139.991C90.881 139.992 90.8811 139.993 90.8811 139.994C90.9518 141.245 91.5136 142.418 92.4445 143.257C93.3753 144.097 94.5999 144.535 95.852 144.476C95.8532 144.476 95.8543 144.476 95.8555 144.476L105.008 143.998C106.26 143.931 107.435 143.371 108.275 142.439C109.115 141.508 109.552 140.282 109.49 139.03C109.49 139.03 109.49 139.029 109.49 139.029L109.098 131.406C109.058 130.635 109.519 129.926 110.24 129.649C111.837 129.034 113.384 128.296 114.866 127.441C115.535 127.055 116.375 127.143 116.95 127.658L122.665 132.778C123.599 133.617 124.827 134.052 126.081 133.987C127.333 133.923 128.51 133.366 129.353 132.438C129.354 132.437 129.355 132.437 129.355 132.436L135.49 125.632C135.491 125.631 135.492 125.63 135.493 125.629C136.328 124.696 136.761 123.47 136.697 122.219C136.633 120.969 136.078 119.795 135.152 118.952C135.15 118.95 135.149 118.949 135.148 118.948L129.442 113.829C128.865 113.311 128.688 112.479 129.005 111.772C129.704 110.209 130.279 108.595 130.725 106.943C130.927 106.198 131.586 105.666 132.357 105.626L139.986 105.234C139.987 105.234 139.987 105.234 139.988 105.234C141.24 105.165 142.414 104.604 143.254 103.673C144.093 102.742 144.531 101.517 144.471 100.265C144.471 100.264 144.471 100.263 144.471 100.263L144 91.1178C143.933 89.8653 143.372 88.6905 142.44 87.8505C141.509 87.0109 140.283 86.5742 139.031 86.6359C139.03 86.6359 139.03 86.636 139.029 86.636L131.398 87.0286C130.624 87.0684 129.912 86.6042 129.637 85.8796C129.03 84.2816 128.295 82.7352 127.439 81.2554C127.053 80.5869 127.14 79.7456 127.656 79.1706L132.777 73.4577C133.614 72.5245 134.048 71.2975 133.983 70.0454C133.918 68.7936 133.359 67.6185 132.43 66.7772C132.43 66.777 132.429 66.7768 132.429 66.7766L125.629 60.6345C125.628 60.6337 125.628 60.633 125.627 60.6323C124.692 59.7958 123.465 59.3628 122.212 59.4279C120.959 59.493 119.783 60.0511 118.94 60.9802C118.94 60.9809 118.939 60.9815 118.939 60.9821L113.828 66.6486C113.311 67.2219 112.484 67.3979 111.778 67.0848C110.209 66.3891 108.589 65.8159 106.932 65.3705C106.185 65.1697 105.652 64.5108 105.612 63.7384L105.22 56.1092C105.22 56.1086 105.22 56.108 105.22 56.1074C105.152 54.8556 104.592 53.6815 103.66 52.842C102.729 52.0024 101.503 51.5657 100.251 51.6274M64.958 115.518C64.4709 114.601 64.0245 113.663 63.62 112.706L57.2519 113.033L57.2449 113.034C55.0507 113.138 52.9043 112.371 51.2731 110.9C49.6418 109.429 48.658 107.373 48.5357 105.181L48.5354 105.174L48.0569 96.0136L48.0565 96.0051C47.9524 93.8114 48.7194 91.6654 50.1906 90.0346C51.6618 88.4037 53.7179 87.4201 55.9111 87.2979L55.9186 87.2975L62.2775 86.97C62.5808 85.9906 62.925 85.0243 63.3092 84.0737L58.5468 79.8062L58.5378 79.7981C56.9117 78.321 55.9359 76.2608 55.8235 74.0671C55.7111 71.8734 56.4711 69.7243 57.9377 68.0887L57.9409 68.0851L64.0829 61.2733L64.0867 61.2691C65.5644 59.6406 67.627 58.6634 69.8233 58.5509C72.0197 58.4385 74.1713 59.2001 75.8077 60.6691L80.5739 64.94C81.4836 64.4571 82.4135 64.0134 83.3611 63.61L83.0513 57.2429C82.9448 55.0481 83.7111 52.9001 85.1831 51.2683C86.6551 49.6365 88.7132 48.6533 90.9077 48.5334L90.9134 48.5331L100.072 48.0617C102.269 47.9528 104.419 48.7183 106.052 50.1908C107.685 51.6633 108.668 53.7229 108.786 55.9183L108.786 55.922L109.113 62.2839C110.098 62.5865 111.07 62.9304 112.027 63.3147L116.29 58.5884L116.292 58.5854C117.769 56.9557 119.83 55.9767 122.027 55.8626C124.223 55.7484 126.376 56.5084 128.013 57.9764L128.018 57.9809L134.825 64.1297C136.455 65.6046 137.435 67.665 137.549 69.86C137.663 72.0549 136.903 74.2057 135.435 75.8418L131.162 80.608C131.645 81.5182 132.087 82.4489 132.488 83.3977L138.849 83.0704L138.852 83.0703C141.049 82.9613 143.199 83.7269 144.832 85.1994C146.465 86.6719 147.448 88.7313 147.566 90.9268L147.566 90.9305L148.037 100.09C148.144 102.284 147.378 104.432 145.906 106.064C144.434 107.696 142.375 108.679 140.181 108.799L140.175 108.799L133.81 109.127C133.507 110.107 133.162 111.073 132.778 112.024L137.541 116.298L137.549 116.306C139.175 117.783 140.151 119.843 140.263 122.037C140.376 124.23 139.616 126.379 138.149 128.015L138.146 128.019L132.004 134.83L132 134.835C130.522 136.463 128.46 137.44 126.263 137.553C124.067 137.665 121.915 136.904 120.279 135.435L115.512 131.163C114.604 131.645 113.675 132.088 112.729 132.491L113.057 138.852C113.166 141.048 112.4 143.197 110.927 144.83C109.454 146.463 107.395 147.446 105.199 147.563L105.196 147.563L96.0332 148.042L96.0247 148.042C93.8306 148.146 91.6842 147.379 90.0529 145.909C88.4217 144.438 87.4378 142.382 87.3156 140.189L87.3152 140.182L86.9878 133.814C86.0075 133.513 85.0407 133.171 84.09 132.786L79.8223 137.547L79.8161 137.554C78.3396 139.184 76.2778 140.163 74.0813 140.277C71.8849 140.391 69.7326 139.631 68.0951 138.163L68.09 138.159L61.284 132.011L61.2828 132.01C59.6529 130.535 58.6736 128.474 58.5594 126.279C58.4452 124.084 59.2053 121.934 60.6734 120.298L64.958 115.518Z" fill="black"/>
<path fill-rule="evenodd" clip-rule="evenodd" d="M120.815 86.4108C121.725 86.0322 122.77 86.4631 123.149 87.3733C125.104 92.0716 125.685 97.2281 124.825 102.243C123.964 107.259 121.698 111.927 118.289 115.706C114.88 119.484 110.468 122.218 105.566 123.588C100.665 124.959 95.4747 124.911 90.5995 123.449C89.655 123.166 89.1189 122.171 89.4021 121.227C89.6854 120.282 90.6807 119.746 91.6252 120.03C95.853 121.297 100.354 121.339 104.604 120.15C108.855 118.961 112.681 116.591 115.637 113.314C118.594 110.038 120.559 105.989 121.305 101.64C122.051 97.2906 121.548 92.8189 119.852 88.7446C119.473 87.8344 119.904 86.7895 120.815 86.4108Z" fill="black"/>
<path fill-rule="evenodd" clip-rule="evenodd" d="M105.033 75.3814C100.809 74.1166 96.3125 74.0753 92.0656 75.2623C87.8186 76.4494 83.9954 78.8162 81.0396 82.088C78.0838 85.3598 76.1165 89.4025 75.3661 93.747C74.6157 98.0916 75.1128 102.56 76.7999 106.633C77.1772 107.544 76.7444 108.588 75.8334 108.965C74.9223 109.343 73.8779 108.91 73.5007 107.999C71.5552 103.302 70.9819 98.1493 71.8473 93.1395C72.7126 88.1297 74.9811 83.4678 78.3896 79.695C81.7981 75.9221 86.2068 73.1929 91.1041 71.8241C96.0014 70.4552 101.187 70.5028 106.058 71.9613C107.003 72.2442 107.539 73.2391 107.256 74.1835C106.973 75.1279 105.978 75.6642 105.033 75.3814Z" fill="black"/>
</g>
<defs>
<clipPath id="clip0_1020_4630">
<rect width="196" height="196" fill="white"/>
</clipPath>
</defs>
</svg>
